<?xml version="1.0" encoding="UTF-8" standalone="no"?>
<svg version="1.1" x="0px" y="0px" viewBox="0 0 56 96" enable-background="new 0 0 100 100" xml:space="preserve">
  <path d="m 49.139,53.737 c -5.423,-2.301 -10.479,-4.453 -16.065,-6.83 -2.595,7.208 -6.155,14.986 0.233,24.733 3.409,5.201 2.48,13.42 2.815,20.301 0.063,1.237 -3.308,3.763 -4.975,3.661 -1.729,-0.101 -4.86,-2.834 -4.722,-4.128 C 27.707,79.429 20.725,70.87 14.892,61.691 13.289,59.172 12.935,55.858 11.85,52.409 10.518,52.245 8.631,52.077 6.768,51.777 1.888,51.005 -0.681,48.877 1.074,43.334 2.677,38.252 3.308,32.852 5.089,27.846 c 0.896,-2.506 3.687,-6.448 5.107,-6.24 3.542,0.521 6.799,3.04 11.987,5.688 7.733,-2.784 10.498,-1.575 17.436,9.775 4.337,7.086 7.058,7.979 14.197,4.384 2.316,4.45 3.466,7.395 -0.354,12.991 -4.06,5.953 -3.832,14.816 -5.518,22.397 -1.414,6.356 -2.885,12.701 -4.33,19.052 -0.922,-0.202 -1.844,-0.404 -2.765,-0.606 2.792,-13.989 5.582,-27.965 8.29,-41.55 z" style="clip-rule:evenodd;fill-rule:evenodd" />
  <path d="M 44.146,11.822 C 43.988,17.749 38.976,22.468 33.194,22.14 27.645,21.825 23.188,17.131 23.163,11.56 23.137,5.7239998 28.055,0.7809999 33.824,0.8469999 39.632,0.9099999 44.303,5.8849998 44.146,11.822 Z" style="clip-rule:evenodd;fill-rule:evenodd" />
  <path d="m 12.134,62.884 c 2.639,5.385 6.357,9.355 5.744,12.474 -1.281,6.527 -4.583,12.745 -7.714,18.748 -0.625,1.193 -4.791,1.8 -6.274,0.916 C 2.412,94.151 1.131,90.654 1.712,89 4.578,80.793 8.088,72.814 12.134,62.884 Z" style="clip-rule:evenodd;fill-rule:evenodd" />
</svg>